<svg width="191" height="30" viewBox="0 0 191 30" fill="none" xmlns="http://www.w3.org/2000/svg">
<path d="M44.3681 2.62842V7.01994H35.0951V13.2295H43.9707V17.6275H35.1017V23.6322H44.3747V28.0237H30.2334V2.62842H44.3681Z" fill="black"/>
<path d="M61.4438 28.5357C59.0578 28.5416 56.7144 27.9245 54.6613 26.7497C52.5768 25.5872 50.84 23.9218 49.6207 21.9164C48.3715 19.8929 47.7208 17.5767 47.7397 15.2203C47.7268 12.9341 48.3588 10.6877 49.5678 8.72266C50.7704 6.73545 52.4809 5.08003 54.5354 3.91503C56.59 2.72546 58.9428 2.10326 61.3378 2.11616C63.9575 2.10726 66.5233 2.83455 68.7231 4.2095C70.9529 5.55518 72.701 7.53071 73.7305 9.86855H68.1932C67.2967 8.84961 66.2119 8.00082 64.994 7.36551C63.808 6.77941 62.4908 6.48478 61.159 6.50769C59.6327 6.51348 58.1429 6.95927 56.8802 7.78801C55.5786 8.61751 54.5074 9.74295 53.7605 11.0657C52.9903 12.3703 52.5853 13.8463 52.5853 15.3484C52.5853 16.8504 52.9903 18.3264 53.7605 19.631C54.5285 20.9649 55.6251 22.0951 56.953 22.9215C58.2409 23.7544 59.7551 24.1999 61.3047 24.2018C62.4962 24.2163 63.6749 23.9643 64.749 23.4656C65.9519 22.8471 67.0237 22.0154 67.9084 21.0138H73.5517C72.8827 22.5101 71.9045 23.8586 70.677 24.9764C69.4357 26.1244 67.9789 27.0326 66.385 27.6523C64.8116 28.2498 63.1342 28.5497 61.4438 28.5357Z" fill="black"/>
<path d="M82.6395 21.4684L79.8377 28.0237H74.4727L85.4082 2.62842H89.2101L100.218 28.0237H94.8269L92.0251 21.4684H82.6395ZM84.2755 17.0385H90.3096L87.329 9.25412H87.2561L84.2755 17.0385Z" fill="black"/>
<path d="M98.1387 7.01994V2.62842H112.77V7.01994H107.869V28.0237H103.007V7.01994H98.1387Z" fill="black"/>
<path d="M118.36 2.62842V25.7255H129.223V28.0237H115.73V2.62842H118.36Z" fill="url(#paint0_linear_241_6993)"/>
<path d="M129.719 28.5036H115.233V2.16089H118.856V25.258H129.719V28.5036ZM116.227 27.5434H128.726V26.2054H117.863V3.10833H116.227V27.5434Z" fill="url(#paint1_linear_241_6993)"/>
<path d="M144.629 28.4652C142.251 28.4684 139.914 27.8727 137.847 26.7368C135.749 25.6062 133.979 23.9837 132.7 22.0188C131.398 20.0646 130.708 17.7881 130.713 15.4635C130.697 13.1212 131.342 10.8191 132.581 8.80581C133.795 6.79478 135.533 5.12619 137.622 3.96617C139.746 2.76386 142.168 2.14003 144.629 2.16091C147.071 2.14359 149.473 2.75333 151.591 3.92776C153.683 5.07442 155.432 6.72383 156.671 8.71619C157.9 10.7023 158.549 12.9733 158.549 15.2875C158.549 17.6017 157.9 19.8726 156.671 21.8587C155.433 23.8567 153.684 25.5125 151.591 26.6664C149.479 27.8572 147.074 28.4784 144.629 28.4652ZM144.596 4.48471C142.611 4.46995 140.661 4.99095 138.966 5.98908C137.275 6.97777 135.871 8.3655 134.886 10.0221C133.888 11.6727 133.367 13.5518 133.376 15.4635C133.374 17.3282 133.908 19.1567 134.919 20.7449C135.933 22.377 137.357 23.7355 139.059 24.6947C140.742 25.6667 142.668 26.1758 144.629 26.167C146.627 26.1853 148.592 25.6762 150.312 24.6947C152.021 23.7403 153.443 22.3725 154.439 20.7257C155.428 19.0936 155.949 17.2364 155.949 15.3451C155.949 13.4537 155.428 11.5965 154.439 9.9645C153.449 8.30893 152.029 6.93195 150.319 5.96988C148.589 4.97492 146.609 4.46098 144.596 4.48471Z" fill="url(#paint2_linear_241_6993)"/>
<path d="M144.629 28.9453C142.167 28.9469 139.748 28.3292 137.608 27.1529C135.447 25.9813 133.625 24.304 132.309 22.2748C130.97 20.2396 130.264 17.8754 130.276 15.4635C130.256 13.039 130.915 10.6545 132.183 8.56253C133.447 6.48467 135.245 4.75793 137.403 3.55005C139.603 2.34365 142.089 1.70947 144.619 1.70947C147.149 1.70947 149.635 2.34365 151.836 3.55005C154.001 4.73892 155.812 6.44777 157.095 8.51132C158.373 10.5708 159.048 12.9274 159.048 15.3291C159.048 17.7308 158.373 20.0873 157.095 22.1468C155.807 24.2097 153.997 25.9216 151.836 27.1209C149.644 28.3366 147.156 28.9663 144.629 28.9453ZM144.629 2.66022C142.26 2.6385 139.929 3.23331 137.88 4.38227C135.867 5.50509 134.19 7.11297 133.011 9.04905C131.828 10.988 131.208 13.1996 131.216 15.4507C131.205 17.6813 131.858 19.8679 133.097 21.7499C134.332 23.6456 136.041 25.2108 138.065 26.3015C140.088 27.4042 142.372 27.9798 144.695 27.9719C147.017 27.9641 149.297 27.373 151.312 26.2567C153.329 25.1413 155.016 23.5457 156.214 21.6219C157.401 19.7119 158.029 17.5255 158.029 15.2971C158.029 13.0686 157.401 10.8822 156.214 8.97224C155.009 7.03832 153.306 5.43918 151.271 4.33073C149.236 3.22228 146.938 2.64232 144.603 2.64742L144.629 2.66022ZM144.629 26.6472C142.58 26.6521 140.567 26.1188 138.807 25.1044C137.034 24.1075 135.551 22.6938 134.495 20.9945C133.438 19.3307 132.878 17.4161 132.879 15.4635C132.871 13.4688 133.416 11.5084 134.455 9.78525C135.479 8.0565 136.943 6.60888 138.708 5.57937C140.483 4.53998 142.521 3.99498 144.596 4.00457C146.692 3.9907 148.753 4.52844 150.557 5.56016C152.338 6.56818 153.818 8.00374 154.856 9.72764C155.888 11.4338 156.433 13.3748 156.433 15.3515C156.433 17.3281 155.888 19.2691 154.856 20.9753C153.823 22.6858 152.348 24.1083 150.577 25.1044C148.776 26.1309 146.72 26.6642 144.629 26.6472ZM144.596 4.96482C142.702 4.95186 140.841 5.45074 139.224 6.40518C137.604 7.34258 136.259 8.66478 135.316 10.2462C134.364 11.8235 133.866 13.6182 133.872 15.4443C133.872 17.2235 134.384 18.9677 135.349 20.4824C136.323 22.0451 137.691 23.3443 139.324 24.2593C140.926 25.1816 142.757 25.6682 144.622 25.6677C146.531 25.6814 148.408 25.1947 150.054 24.2593C151.678 23.3455 153.029 22.0396 153.975 20.4696C154.914 18.9155 155.409 17.1481 155.409 15.3483C155.409 13.5485 154.914 11.781 153.975 10.227C153.029 8.63736 151.671 7.31351 150.034 6.38598C148.389 5.44351 146.509 4.95219 144.596 4.96482Z" fill="url(#paint3_linear_241_6993)"/>
<path d="M189.47 16.3534C189.299 18.5512 188.541 20.6686 187.271 22.499C186.005 24.3389 184.281 25.8423 182.257 26.8713C180.206 27.9316 177.913 28.4795 175.587 28.4653C173.173 28.4475 170.802 27.8473 168.689 26.7193C166.576 25.5914 164.787 23.9713 163.486 22.0061C162.162 20.009 161.472 17.6815 161.499 15.31C161.485 12.9859 162.144 10.7045 163.4 8.72268C165.175 5.9478 167.911 3.87123 171.121 2.86205C174.331 1.85287 177.808 1.97646 180.932 3.21087C182.555 3.84838 184.047 4.7611 185.337 5.90596C186.468 6.86966 187.372 8.05737 187.986 9.38844H184.906C183.97 7.8686 182.612 6.63318 180.985 5.82274C179.326 4.94456 177.465 4.48442 175.574 4.4848C173.574 4.47577 171.607 4.97703 169.871 5.93796C168.14 6.88203 166.691 8.24269 165.665 9.88778C164.636 11.5402 164.092 13.4325 164.092 15.3612C164.092 17.2899 164.636 19.1821 165.665 20.8346C166.698 22.4758 168.16 23.8249 169.904 24.746C171.665 25.6895 173.647 26.1789 175.66 26.1671C177.25 26.1683 178.822 25.8409 180.27 25.2069C181.723 24.5851 183.023 23.6731 184.085 22.531C185.13 21.4276 185.885 20.0968 186.284 18.6516H171.659V16.3534H189.47Z" fill="url(#paint4_linear_241_6993)"/>
<path d="M175.594 28.9455C173.094 28.9322 170.636 28.315 168.445 27.15C166.255 25.985 164.4 24.3092 163.049 22.275C161.679 20.1995 160.961 17.7846 160.983 15.3228C160.977 12.9099 161.665 10.5429 162.97 8.48585C164.81 5.60961 167.648 3.45898 170.977 2.41774C174.306 1.3765 177.91 1.5124 181.145 2.80119C182.82 3.46244 184.361 4.40525 185.695 5.58591C186.869 6.59886 187.804 7.84312 188.438 9.23484L188.729 9.875H184.642L184.503 9.63814C183.607 8.19599 182.314 7.02338 180.767 6.25168C179.133 5.39238 177.297 4.95184 175.437 4.97201C173.576 4.99218 171.751 5.47239 170.137 6.36691C168.481 7.27041 167.094 8.57125 166.11 10.1439C165.121 11.7179 164.605 13.5265 164.619 15.3676C164.606 17.2093 165.129 19.0174 166.129 20.5849C167.117 22.1552 168.515 23.4467 170.183 24.3299C171.871 25.2338 173.771 25.7034 175.7 25.6934C177.215 25.6916 178.711 25.3796 180.092 24.778C181.48 24.1803 182.723 23.308 183.741 22.2174C184.581 21.3239 185.228 20.277 185.642 19.1382H171.15V15.8797H190.014L189.968 16.3983C189.795 18.688 189.008 20.8947 187.682 22.7999C186.374 24.7049 184.594 26.2631 182.503 27.3323C180.375 28.4169 178 28.9713 175.594 28.9455ZM175.555 2.66036C173.201 2.65296 170.886 3.23089 168.83 4.33856C166.775 5.44623 165.048 7.04639 163.818 8.98518C162.612 10.8927 161.978 13.0872 161.99 15.3228C161.968 17.6015 162.633 19.837 163.904 21.7564C165.761 24.5986 168.659 26.6598 172.019 27.5295C175.378 28.3991 178.954 28.0133 182.033 26.4488C183.981 25.4542 185.641 24.0039 186.861 22.2302C187.98 20.614 188.685 18.7645 188.921 16.8336H172.144V18.1651H186.96L186.795 18.8053C186.37 20.3206 185.577 21.7163 184.483 22.8767C183.376 24.0682 182.022 25.0213 180.509 25.6742C179.002 26.3327 177.367 26.6731 175.714 26.6729C173.617 26.6834 171.552 26.1719 169.719 25.1877C167.9 24.2269 166.374 22.8206 165.295 21.1099C164.218 19.3824 163.648 17.4037 163.648 15.3868C163.648 13.3699 164.218 11.3912 165.295 9.66375C166.367 7.95071 167.877 6.53315 169.68 5.54749C171.442 4.57474 173.433 4.05301 175.462 4.03172C177.492 4.01044 179.493 4.49031 181.277 5.42587C182.898 6.23715 184.269 7.4472 185.252 8.93396H187.239C186.663 7.94196 185.925 7.04687 185.053 6.28369C183.808 5.17679 182.368 4.29437 180.801 3.67822C179.139 3.00568 177.356 2.65967 175.555 2.66036Z" fill="url(#paint5_linear_241_6993)"/>
<path d="M8.93875 30.1746H0.328125V9.95819H5.87867V24.81H8.93875C11.518 24.7455 13.9692 23.7099 15.7699 21.9239C17.5706 20.1379 18.5784 17.7428 18.5784 15.2491C18.5784 12.7555 17.5706 10.3604 15.7699 8.5744C13.9692 6.78842 11.518 5.75281 8.93875 5.6883H6.73311V0.32373H8.9255C12.9658 0.404607 16.8124 2.01263 19.6402 4.80288C22.468 7.59313 24.0518 11.3434 24.0518 15.2491C24.0518 19.1549 22.468 22.9052 19.6402 25.6954C16.8124 28.4857 12.9658 30.0937 8.9255 30.1746H8.93875Z" fill="black"/>
<path d="M5.87891 24.81C5.87891 24.81 5.93852 20.4889 8.73366 19.5031C11.8401 18.4084 14.8273 19.3558 15.9401 19.7015C16.3935 19.8836 16.8798 19.9771 17.3708 19.9768C17.7789 20.0031 18.1883 19.9481 18.5735 19.8153C18.9588 19.6824 19.3117 19.4745 19.6104 19.2044C19.9091 18.9343 20.1472 18.6078 20.31 18.2452C20.4728 17.8825 20.5568 17.4914 20.5568 17.0961C20.5568 16.7007 20.4728 16.3096 20.31 15.9469C20.1472 15.5843 19.9091 15.2578 19.6104 14.9877C19.3117 14.7176 18.9588 14.5097 18.5735 14.3768C18.1883 14.244 17.7789 14.189 17.3708 14.2153C16.879 14.214 16.3922 14.3099 15.9401 14.497C13.6139 15.2656 11.1013 15.3348 8.73366 14.6954C6.018 13.8696 5.87891 9.93262 5.87891 9.93262" fill="#EAC7AE"/>
<path d="M25.1003 15.5405C26.077 15.5405 26.8688 14.8555 26.8688 14.0105C26.8688 13.1655 26.077 12.4805 25.1003 12.4805C24.1236 12.4805 23.3318 13.1655 23.3318 14.0105C23.3318 14.8555 24.1236 15.5405 25.1003 15.5405Z" fill="#EAC7AE"/>
<path d="M0.328125 30.1745V4.9585H6.18335C6.18335 12.3844 6.06413 17.2944 6.06413 24.8036C10.6609 24.8036 13.2242 27.3066 17.9865 27.3066C16.7628 28.5068 15.2278 29.3669 13.5421 29.7968C12.5366 30.1075 11.4909 30.2799 10.4357 30.309C7.39546 30.3794 3.46769 30.1745 0.328125 30.1745Z" fill="url(#paint6_linear_241_6993)"/>
<defs>
<linearGradient id="paint0_linear_241_6993" x1="115.73" y1="15.3229" x2="129.223" y2="15.3229" gradientUnits="userSpaceOnUse">
<stop stop-color="#0BDBB6"/>
<stop offset="1" stop-color="#0BDBB6"/>
</linearGradient>
<linearGradient id="paint1_linear_241_6993" x1="115.233" y1="15.3227" x2="129.719" y2="15.3227" gradientUnits="userSpaceOnUse">
<stop stop-color="#0BDBB6"/>
<stop offset="1" stop-color="#0BDBB6"/>
</linearGradient>
<linearGradient id="paint2_linear_241_6993" x1="130.746" y1="15.3227" x2="158.552" y2="15.3227" gradientUnits="userSpaceOnUse">
<stop stop-color="#0BDBB6"/>
<stop offset="1" stop-color="#0BDBB6"/>
</linearGradient>
<linearGradient id="paint3_linear_241_6993" x1="130.249" y1="15.3227" x2="159.049" y2="15.3227" gradientUnits="userSpaceOnUse">
<stop stop-color="#0BDBB6"/>
<stop offset="1" stop-color="#0BDBB6"/>
</linearGradient>
<linearGradient id="paint4_linear_241_6993" x1="161.492" y1="15.3228" x2="189.47" y2="15.3228" gradientUnits="userSpaceOnUse">
<stop stop-color="#0BDBB6"/>
<stop offset="1" stop-color="#0BDBB6"/>
</linearGradient>
<linearGradient id="paint5_linear_241_6993" x1="160.996" y1="15.3228" x2="190.014" y2="15.3228" gradientUnits="userSpaceOnUse">
<stop stop-color="#0BDBB6"/>
<stop offset="1" stop-color="#0BDBB6"/>
</linearGradient>
<linearGradient id="paint6_linear_241_6993" x1="0.328125" y1="17.6401" x2="18.0064" y2="17.6401" gradientUnits="userSpaceOnUse">
<stop stop-color="#0BDBB6"/>
<stop offset="1" stop-color="#41B06E"/>
</linearGradient>
</defs>
</svg>
