<svg width="17" height="24" viewBox="0 0 17 24" fill="none" xmlns="http://www.w3.org/2000/svg">
<path d="M8.01797 11.2892C7.25851 11.2892 6.53015 10.9916 5.99313 10.4619C5.4561 9.93219 5.15441 9.21377 5.15441 8.46466C5.15441 7.71556 5.4561 6.99713 5.99313 6.46743C6.53015 5.93773 7.25851 5.64015 8.01797 5.64015C8.77743 5.64015 9.50579 5.93773 10.0428 6.46743C10.5798 6.99713 10.8815 7.71556 10.8815 8.46466C10.8815 8.83558 10.8075 9.20287 10.6636 9.54556C10.5196 9.88824 10.3087 10.1996 10.0428 10.4619C9.77691 10.7242 9.46123 10.9322 9.11381 11.0742C8.76638 11.2161 8.39402 11.2892 8.01797 11.2892ZM8.01797 0.55603C5.89147 0.55603 3.85207 1.38926 2.34841 2.87241C0.844748 4.35557 0 6.36716 0 8.46466C0 14.3961 8.01797 23.1521 8.01797 23.1521C8.01797 23.1521 16.0359 14.3961 16.0359 8.46466C16.0359 6.36716 15.1912 4.35557 13.6875 2.87241C12.1839 1.38926 10.1445 0.55603 8.01797 0.55603Z" fill="#0BDBB6"/>
</svg>
