<svg width="20" height="20" viewBox="0 0 20 20" fill="none" xmlns="http://www.w3.org/2000/svg">
<path d="M10.5873 0.527344C11.6583 0.5302 12.2019 0.535912 12.6713 0.549241L12.856 0.555905C13.0692 0.563521 13.2796 0.573041 13.5338 0.584466C14.5468 0.632068 15.238 0.79201 15.8444 1.02716C16.4727 1.26898 17.0021 1.59648 17.5314 2.12486C18.0155 2.60078 18.3901 3.17647 18.6291 3.81187C18.8643 4.41832 19.0242 5.1095 19.0718 6.12342C19.0832 6.37666 19.0928 6.58706 19.1004 6.80127L19.1061 6.98596C19.1204 7.45436 19.1261 7.99798 19.128 9.06902L19.1289 9.77924V11.0264C19.1313 11.7208 19.124 12.4152 19.107 13.1095L19.1013 13.2942C19.0937 13.5084 19.0842 13.7188 19.0728 13.972C19.0252 14.9859 18.8633 15.6762 18.6291 16.2836C18.3908 16.9193 18.0161 17.4951 17.5314 17.9706C17.0554 18.4545 16.4797 18.8291 15.8444 19.0683C15.238 19.3034 14.5468 19.4634 13.5338 19.511C13.3079 19.5216 13.082 19.5311 12.856 19.5395L12.6713 19.5452C12.2019 19.5586 11.6583 19.5652 10.5873 19.5671L9.87704 19.5681H8.63082C7.93608 19.5705 7.24135 19.5632 6.54681 19.5462L6.36212 19.5405C6.13612 19.5319 5.91016 19.5221 5.68427 19.511C4.6713 19.4634 3.98012 19.3034 3.37272 19.0683C2.7374 18.8297 2.16194 18.455 1.68667 17.9706C1.20212 17.4948 0.82719 16.9191 0.588015 16.2836C0.352862 15.6771 0.19292 14.9859 0.145318 13.972C0.134711 13.7461 0.125191 13.5202 0.116757 13.2942L0.111997 13.1095C0.0944527 12.4153 0.0865182 11.7208 0.0881958 11.0264V9.06902C0.0855387 8.3746 0.0925211 7.68018 0.109141 6.98596L0.115805 6.80127C0.123421 6.58706 0.132942 6.37666 0.144366 6.12342C0.191968 5.1095 0.35191 4.41927 0.587063 3.81187C0.826133 3.17582 1.20181 2.59995 1.68762 2.12486C2.16277 1.64073 2.73785 1.26611 3.37272 1.02716C3.98012 0.79201 4.67035 0.632068 5.68427 0.584466C5.93751 0.573041 6.14886 0.563521 6.36212 0.555905L6.54681 0.550193C7.24103 0.533278 7.93545 0.525978 8.62987 0.528296L10.5873 0.527344ZM9.60856 5.28753C8.34608 5.28753 7.13531 5.78905 6.24261 6.68175C5.3499 7.57446 4.84838 8.78523 4.84838 10.0477C4.84838 11.3102 5.3499 12.521 6.24261 13.4137C7.13531 14.3064 8.34608 14.8079 9.60856 14.8079C10.871 14.8079 12.0818 14.3064 12.9745 13.4137C13.8672 12.521 14.3687 11.3102 14.3687 10.0477C14.3687 8.78523 13.8672 7.57446 12.9745 6.68175C12.0818 5.78905 10.871 5.28753 9.60856 5.28753ZM9.60856 7.1916C9.98363 7.19154 10.355 7.26535 10.7016 7.40883C11.0481 7.5523 11.363 7.76263 11.6283 8.0278C11.8935 8.29297 12.104 8.60779 12.2476 8.95429C12.3912 9.30078 12.4651 9.67217 12.4652 10.0472C12.4652 10.4223 12.3914 10.7937 12.2479 11.1403C12.1044 11.4868 11.8941 11.8017 11.629 12.0669C11.3638 12.3322 11.049 12.5426 10.7025 12.6862C10.356 12.8298 9.98459 12.9038 9.60952 12.9038C8.85203 12.9038 8.12557 12.6029 7.58994 12.0673C7.05432 11.5317 6.75341 10.8052 6.75341 10.0477C6.75341 9.29022 7.05432 8.56376 7.58994 8.02814C8.12557 7.49251 8.85203 7.1916 9.60952 7.1916M14.6077 3.85947C14.2921 3.85947 13.9894 3.98485 13.7662 4.20803C13.543 4.43121 13.4177 4.7339 13.4177 5.04952C13.4177 5.36514 13.543 5.66783 13.7662 5.89101C13.9894 6.11418 14.2921 6.23956 14.6077 6.23956C14.9233 6.23956 15.226 6.11418 15.4492 5.89101C15.6724 5.66783 15.7978 5.36514 15.7978 5.04952C15.7978 4.7339 15.6724 4.43121 15.4492 4.20803C15.226 3.98485 14.9233 3.85947 14.6077 3.85947Z" fill="#0BDBB6"/>
</svg>
